<svg id="Layer_1" data-name="Layer 1" xmlns="http://www.w3.org/2000/svg" viewBox="0 0 355 386"><defs><style>.cls-1{fill:#fff;}</style></defs><rect class="cls-1" width="355" height="386"/><rect x="26" y="28" width="303" height="259"/><path d="M27.76,298.79A17.24,17.24,0,0,1,33.91,295a21.1,21.1,0,0,1,7.17-1.26,19.22,19.22,0,0,1,6.39.93,9.51,9.51,0,0,1,4.23,2.88,12.23,12.23,0,0,1,2.37,4.92,29.38,29.38,0,0,1,.75,7v15.06h-9v-3.18h-.18a7.42,7.42,0,0,1-3.45,2.88,12.27,12.27,0,0,1-5,1,15.62,15.62,0,0,1-3.72-.48A11.07,11.07,0,0,1,30,323.2a8.39,8.39,0,0,1-2.61-2.88,8.9,8.9,0,0,1-1-4.44,7.52,7.52,0,0,1,1.77-5.22,11.6,11.6,0,0,1,4.56-3.06,24.17,24.17,0,0,1,6.21-1.44,61.78,61.78,0,0,1,6.66-.36v-.48A3.67,3.67,0,0,0,44,302.05a6.75,6.75,0,0,0-3.84-1,9.61,9.61,0,0,0-4,.9,12.78,12.78,0,0,0-3.33,2.16Zm18.06,12.78H44.56q-1.62,0-3.27.15a13.41,13.41,0,0,0-2.94.57,5.44,5.44,0,0,0-2.13,1.23,2.83,2.83,0,0,0-.84,2.13,2.6,2.6,0,0,0,.39,1.44,3,3,0,0,0,1,1,4.25,4.25,0,0,0,1.38.51,7.56,7.56,0,0,0,1.5.15,6.09,6.09,0,0,0,4.59-1.65,6.18,6.18,0,0,0,1.59-4.47Z"/><path d="M80.89,302.81a7,7,0,0,0-1.29-.24q-.63-.06-1.23-.06a7,7,0,0,0-3.33.72A6.83,6.83,0,0,0,72.88,305a6.49,6.49,0,0,0-1.17,2.22,7.45,7.45,0,0,0-.36,2.09v15.32H61.51V294.75H71v4.32h.12a9.79,9.79,0,0,1,3.24-3.75,8.34,8.34,0,0,1,4.86-1.45,11.46,11.46,0,0,1,1.17.06,4.78,4.78,0,0,1,.93.18Z"/><path d="M97.54,302v11.44a5.14,5.14,0,0,0,.81,3.17,3.46,3.46,0,0,0,2.91,1,9.86,9.86,0,0,0,1.53-.12,5.28,5.28,0,0,0,1.35-.36l.12,7.2a16.19,16.19,0,0,1-2.58.63,18.09,18.09,0,0,1-3.12.27,14.63,14.63,0,0,1-5-.75,7.77,7.77,0,0,1-3.27-2.17,8.48,8.48,0,0,1-1.77-3.37,16,16,0,0,1-.54-4.36V302h-4.8v-7.32h4.74v-7.86h9.66v7.86h7V302Z"/><path d="M162.34,324.59V308.27a16.46,16.46,0,0,0-.18-2.43,5.89,5.89,0,0,0-.66-2,3.79,3.79,0,0,0-1.29-1.35,4.07,4.07,0,0,0-2.13-.51,4.29,4.29,0,0,0-2.19.54,4.88,4.88,0,0,0-1.56,1.44,6.34,6.34,0,0,0-.93,2.07,9.92,9.92,0,0,0-.3,2.43V324.6h-9.84v-17a7.21,7.21,0,0,0-1-4.08A3.63,3.63,0,0,0,139,302a4.15,4.15,0,0,0-3.63,1.86,7.84,7.84,0,0,0-1.29,4.56v16.2h-9.9V294.74h9.54v4.14h.12a10.27,10.27,0,0,1,1.35-1.86,8.76,8.76,0,0,1,1.95-1.59,10.89,10.89,0,0,1,2.55-1.11,11.9,11.9,0,0,1,8.58.9,9,9,0,0,1,3.51,3.78,11.39,11.39,0,0,1,3.84-3.72,11,11,0,0,1,5.7-1.38,10.71,10.71,0,0,1,5.13,1.11,9.52,9.52,0,0,1,3.33,2.88,12.11,12.11,0,0,1,1.83,4,17.25,17.25,0,0,1,.57,4.29v18.48Z"/><path d="M210.56,309.53a16.23,16.23,0,0,1-1.32,6.63,14.87,14.87,0,0,1-3.6,5,16.53,16.53,0,0,1-5.28,3.21,17.81,17.81,0,0,1-6.42,1.14,18.09,18.09,0,0,1-6.39-1.14,16.18,16.18,0,0,1-5.28-3.21,15,15,0,0,1-3.57-5,17.24,17.24,0,0,1,0-13.23,14.79,14.79,0,0,1,3.57-5,15.51,15.51,0,0,1,5.28-3.12,19.53,19.53,0,0,1,12.81,0,15.94,15.94,0,0,1,5.28,3.12,14.64,14.64,0,0,1,3.6,5A16.09,16.09,0,0,1,210.56,309.53Zm-9.48,0a8.48,8.48,0,0,0-.48-2.82,7.43,7.43,0,0,0-1.38-2.43,7,7,0,0,0-2.22-1.71,7.42,7.42,0,0,0-6.12,0,6.64,6.64,0,0,0-2.19,1.71,7.28,7.28,0,0,0-1.32,2.43,9.06,9.06,0,0,0,0,5.64,7.63,7.63,0,0,0,1.35,2.49,6.59,6.59,0,0,0,2.22,1.77,7.42,7.42,0,0,0,6.12,0,6.59,6.59,0,0,0,2.22-1.77,7.63,7.63,0,0,0,1.35-2.49A9,9,0,0,0,201.08,309.53Z"/><path d="M233.54,324.59H222.92l-11.76-29.88H222l6.3,19.38h.18l6.3-19.38h10.5Z"/><path d="M277,310v1.2a10.88,10.88,0,0,1-.06,1.14H255.29a5.26,5.26,0,0,0,.75,2.28,6.37,6.37,0,0,0,1.62,1.77,7.74,7.74,0,0,0,2.22,1.17,7.88,7.88,0,0,0,2.55.42,8.26,8.26,0,0,0,4-.87,7.79,7.79,0,0,0,2.57-2.24l6.84,4.32a13.93,13.93,0,0,1-5.55,4.71,18.37,18.37,0,0,1-8,1.65,19.11,19.11,0,0,1-6.36-1,15.32,15.32,0,0,1-5.25-3.06,14.22,14.22,0,0,1-3.54-5,16.29,16.29,0,0,1-1.29-6.72,16.92,16.92,0,0,1,1.26-6.63,14.87,14.87,0,0,1,8.52-8.21,17.5,17.5,0,0,1,6.36-1.14,16.11,16.11,0,0,1,6.06,1.11,13.24,13.24,0,0,1,4.74,3.21,14.82,14.82,0,0,1,3.09,5.1A19.63,19.63,0,0,1,277,310Zm-9.06-3.78a5.88,5.88,0,0,0-1.47-4,5.56,5.56,0,0,0-4.41-1.68,7.44,7.44,0,0,0-2.64.45,6.83,6.83,0,0,0-2.1,1.23,6.12,6.12,0,0,0-1.44,1.83,5.43,5.43,0,0,0-.6,2.19Z"/><path d="M301.77,302.81a7,7,0,0,0-1.29-.24q-.63-.06-1.23-.06a7,7,0,0,0-3.33.72,6.83,6.83,0,0,0-2.16,1.73,6.49,6.49,0,0,0-1.17,2.22,7.45,7.45,0,0,0-.36,2.09v15.32h-9.84V294.75h9.48v4.32H292a9.79,9.79,0,0,1,3.24-3.75,8.34,8.34,0,0,1,4.86-1.45,11.46,11.46,0,0,1,1.17.06,4.78,4.78,0,0,1,.93.18Z"/><path d="M323.87,303.53a11.08,11.08,0,0,0-2.82-1.92,7.82,7.82,0,0,0-3.42-.78,6.05,6.05,0,0,0-2.55.54,1.88,1.88,0,0,0-1.17,1.86,1.85,1.85,0,0,0,1.29,1.8,27.57,27.57,0,0,0,4.17,1.2,22.33,22.33,0,0,1,3.39,1,11.92,11.92,0,0,1,3.09,1.74,8.31,8.31,0,0,1,2.22,2.64,7.75,7.75,0,0,1,.84,3.72,9,9,0,0,1-4.11,7.92,12.87,12.87,0,0,1-4.11,1.74,19.41,19.41,0,0,1-4.56.54,22.4,22.4,0,0,1-7.17-1.17,15,15,0,0,1-5.85-3.45l5.52-5.82a10.93,10.93,0,0,0,3.24,2.4,9,9,0,0,0,4.08,1,5.44,5.44,0,0,0,2.37-.57,2,2,0,0,0,1.17-2,2.15,2.15,0,0,0-1.44-2,25.17,25.17,0,0,0-4.5-1.38,23.11,23.11,0,0,1-3.12-1,9.88,9.88,0,0,1-2.79-1.62,8,8,0,0,1-2-2.52,7.72,7.72,0,0,1-.78-3.6,8.68,8.68,0,0,1,1.14-4.59,9.65,9.65,0,0,1,2.94-3.09,13,13,0,0,1,4-1.77,17.25,17.25,0,0,1,4.35-.57,20.91,20.91,0,0,1,6.57,1,14.2,14.2,0,0,1,5.43,3.15Z"/><path d="M48.3,340.71a9.27,9.27,0,0,0-3.17-2.18,11,11,0,0,0-4.21-.77,10.31,10.31,0,0,0-4.41.9,10,10,0,0,0-3.33,2.42,10.61,10.61,0,0,0-2.11,3.54,12.55,12.55,0,0,0,0,8.49,10.53,10.53,0,0,0,2.11,3.52A10.2,10.2,0,0,0,36.51,359a10.61,10.61,0,0,0,4.41.89,15.85,15.85,0,0,0,4-.46,10.14,10.14,0,0,0,2.91-1.19v-7.74H41.89v-2.31h8.53v11.52a16.74,16.74,0,0,1-4.5,1.87,20,20,0,0,1-5,.62,13.87,13.87,0,0,1-5.33-1,12.43,12.43,0,0,1-7-7,14.89,14.89,0,0,1,0-10.73,13.14,13.14,0,0,1,2.79-4.23,12.84,12.84,0,0,1,4.22-2.79,13.57,13.57,0,0,1,5.27-1,14.06,14.06,0,0,1,5.33.92,11.45,11.45,0,0,1,3.89,2.54Z"/><path d="M59.6,359.29H71.48v2.3H57V336.1h2.59Z"/><path d="M99.49,348.85a14.05,14.05,0,0,1-1,5.36,12.66,12.66,0,0,1-7,7,14.41,14.41,0,0,1-10.55,0,12.66,12.66,0,0,1-7-7,14.89,14.89,0,0,1,0-10.73,12.66,12.66,0,0,1,7-7,14.41,14.41,0,0,1,10.55,0,12.66,12.66,0,0,1,7,7A14.1,14.1,0,0,1,99.49,348.85Zm-2.74,0a12.51,12.51,0,0,0-.72-4.24,10.56,10.56,0,0,0-2.09-3.54,10,10,0,0,0-3.33-2.42,10.31,10.31,0,0,0-4.41-.9,10.46,10.46,0,0,0-4.41.9,10.08,10.08,0,0,0-3.33,2.42,10.64,10.64,0,0,0-2.08,3.54,12.87,12.87,0,0,0,0,8.49,10.55,10.55,0,0,0,2.08,3.52A10.3,10.3,0,0,0,81.79,359a11.37,11.37,0,0,0,8.82,0,10.2,10.2,0,0,0,3.33-2.41A10.31,10.31,0,0,0,96,353.1a12.51,12.51,0,0,0,.72-4.24Z"/><path d="M104.89,336.1h7.59a13.67,13.67,0,0,1,2.92.31,7.84,7.84,0,0,1,2.64,1,5.72,5.72,0,0,1,1.91,2,6.15,6.15,0,0,1,.74,3.17,5.36,5.36,0,0,1-1.23,3.51,5.81,5.81,0,0,1-3.29,2v.07a6.73,6.73,0,0,1,4.11,1.93,6,6,0,0,1,1.64,4.44,6.33,6.33,0,0,1-.67,2.9,6.17,6.17,0,0,1-1.89,2.23,8.83,8.83,0,0,1-3,1.43,14.27,14.27,0,0,1-4,.5h-7.54Zm2.59,11.16h5.22a8.55,8.55,0,0,0,1.89-.21,5.4,5.4,0,0,0,1.75-.74,4,4,0,0,0,1.27-1.39,4.11,4.11,0,0,0,.49-2.12,3.94,3.94,0,0,0-.49-2.07,4.06,4.06,0,0,0-1.31-1.39,5.44,5.44,0,0,0-1.94-.77,11.86,11.86,0,0,0-2.38-.24h-4.5Zm0,12.1h4.82a13.49,13.49,0,0,0,2.69-.27,6.91,6.91,0,0,0,2.23-.87,4.69,4.69,0,0,0,1.53-1.54,4.48,4.48,0,0,0,.57-2.29,4.34,4.34,0,0,0-1.71-3.76,8.1,8.1,0,0,0-4.84-1.24h-5.29Z"/><path d="M127.6,361.59h-2.84l11-25.49h2.51l11,25.49h-2.88l-2.81-6.7H130.41Zm3.75-9.07h11.23L137,339Z"/><path d="M155.57,359.29h11.89v2.3H153V336.1h2.59Z"/><path d="M198.81,340.71a9.27,9.27,0,0,0-3.17-2.18,10.84,10.84,0,0,0-4.21-.77,10.46,10.46,0,0,0-4.41.9,10,10,0,0,0-3.33,2.42,11,11,0,0,0-2.1,3.54,12.55,12.55,0,0,0,0,8.49,10.77,10.77,0,0,0,2.1,3.52A10.26,10.26,0,0,0,187,359a10.61,10.61,0,0,0,4.41.89,15.85,15.85,0,0,0,4-.46,10.62,10.62,0,0,0,2.92-1.19V350.5h-5.94v-2.31h8.53v11.52a16.74,16.74,0,0,1-4.5,1.87,20.5,20.5,0,0,1-5,.62,13.85,13.85,0,0,1-5.32-1,12.39,12.39,0,0,1-4.21-2.79,12.8,12.8,0,0,1-2.76-4.23,14.89,14.89,0,0,1,0-10.73,12.66,12.66,0,0,1,7-7,13.57,13.57,0,0,1,5.27-1,14.06,14.06,0,0,1,5.33.92,11.45,11.45,0,0,1,3.89,2.54Z"/><path d="M207.34,361.59H204.5l11-25.49H218l11,25.49h-2.9l-2.81-6.7H210.12Zm3.75-9.07h11.23L216.7,339Z"/><path d="M235.31,359.29h11.88v2.3H232.72V336.1h2.59Z"/><path d="M253.67,359.29h11.88v2.3H251.08V336.1h2.59Z"/><path d="M272,359.29h13.68v2.3H269.44V336.1h15.81v2.31H272v8.74h12.38v2.31H272Z"/><path d="M293.35,361.59h-2.6V336.1h7.49a15.64,15.64,0,0,1,3.48.36,8,8,0,0,1,2.77,1.17,5.54,5.54,0,0,1,1.82,2.11,6.93,6.93,0,0,1,.64,3.17,6.21,6.21,0,0,1-1.87,4.55,6.6,6.6,0,0,1-2,1.35,9.29,9.29,0,0,1-2.59.65l7.45,12.13h-3.22l-7-11.92h-4.37Zm0-14.15h4.5a8.64,8.64,0,0,0,4.82-1.13,3.81,3.81,0,0,0,1.69-3.4,4.37,4.37,0,0,0-.47-2.13,3.86,3.86,0,0,0-1.29-1.4,5.78,5.78,0,0,0-2-.79,12.29,12.29,0,0,0-2.63-.26h-4.6Z"/><path d="M320.85,361.59h-2.59v-11l-9.54-14.51H312l7.67,12.35,7.74-12.35h3l-9.54,14.51Z"/><path class="cls-1" d="M224,135.52a51.94,51.94,0,0,1-7.4,3.94,69.67,69.67,0,0,1-7.81,2.9c-7.47,2.21-15.4,3.89-23.24,5.51S170,151,162.88,152.78c8.43-1.9,17.17-3.39,26-5.17s17.91-3.81,26.76-7.54a53.09,53.09,0,0,0,12.7-7.44,38.68,38.68,0,0,0,5.46-5.32c.86-1,1.58-2,2.35-3a20.24,20.24,0,0,0,2-3.28,39,39,0,0,0,2.6-5.74c-.13-.2-.28-.39-.42-.59l-.54,1.56a40.47,40.47,0,0,1-3.76,7.5,39.72,39.72,0,0,1-5.41,6.58A44.19,44.19,0,0,1,224,135.52Zm-87.23,13a115.39,115.39,0,0,1,25.82-7.89c11.8-2.25,23.89-4,35.22-6.79s21.79-6.87,28-14.17a22.35,22.35,0,0,0,3.07-5.15A32.48,32.48,0,0,0,230.8,108c.08-.46.15-.92.23-1.37v-1c0-.74-.09-1.43-.14-2.1a76.06,76.06,0,0,0-7.48-6.4v1.59a29.18,29.18,0,0,1-.43,3.73c-.12.63-.21,1.24-.38,1.88s-.37,1.26-.56,1.89a13.41,13.41,0,0,1-.7,1.86c-.27.62-.51,1.24-.83,1.82a24,24,0,0,1-2.15,3.39,26.24,26.24,0,0,1-2.57,3c-.46.43-.93.83-1.41,1.25l-.71.6-.72.54a36.87,36.87,0,0,1-5.92,3.53,51.62,51.62,0,0,1-11,3c-3.48.61-6.82,1-10.12,1.22-5.55.43-9.76-.06-14.56,0-.14,0-.17-.06-.1-.11a1,1,0,0,1,.41-.1c3.75-.31,7.54-.59,11.44-1a97.55,97.55,0,0,0,12.15-1.94c1-.23,1.92-.48,2.87-.77l.33-.13c.85-.29,1.71-.65,2.56-1l-.91.29c-.59.21-1.15.26-1.24.09s0-.15.16-.25a60.56,60.56,0,0,1-6.57,1,9.18,9.18,0,0,1-1.73.2c-2.38.65-4.75,1.18-7.12,1.73l-.58.15a4.11,4.11,0,0,1-2,.07.51.51,0,0,1-.26-.14c-5.46.58-10.88,1.24-16,1.68-.26,0-.4,0-.38-.11a1.32,1.32,0,0,1-.33.08,16.68,16.68,0,0,0-2,.16c-.16,0-.25,0-.19-.07a.6.6,0,0,1,.36-.14c.73-.09,1.45-.16,2.12-.18a.17.17,0,0,1,.14,0,1.51,1.51,0,0,1,.58-.18c5.18-.89,10.29-1.25,15.62-2.07-2.65.15-5.33.4-8.13.67-3.39.34-6.52.54-9.86,1.16h-.3a.48.48,0,0,1,.32-.15c6.86-1.35,13.11-1.14,20.32-2.43l.85-.16-6.79-.07c-6.62,1-13.17,1.92-19.57,3.31-.3.08-.57.07-.59,0s.22-.24.53-.32c3.54-1.13,7.18-2.08,10.85-2.92h-.8l-.78.11c-2.37.48-4.74,1-7.11,1.53-.88.22-1.66.24-1.78,0s.51-.65,1.36-.88h-.65a.75.75,0,0,1,.35-.16l1.53-.18c4.5-1.22,9.08-2.06,13.65-2.82a124.51,124.51,0,0,0-15,2.51c.11,0,.14.06,0,.12a.87.87,0,0,1-.42.1c-.13,0-.12-.06,0-.12h0a79.24,79.24,0,0,0-8,2.42c-.15.06-.3.06-.31,0s.11-.14.28-.19c8.76-3.2,17.85-4.47,26.61-5.36l1.43-.24h0a1.89,1.89,0,0,1,.8-.68l-9.27,1.32c-2.56.51-5.12,1-7.68,1.64-.36.09-.69.08-.73,0s.25-.26.64-.36l1.88-.44c-.55,0-.93-.14-1-.36s.13-.46.54-.7c-2.84.42-5.67.87-8.47,1.35h-.22a.73.73,0,0,1,.37-.16c4-1,7.94-1.69,11.86-2.31,3-.88,6-1.7,9.26-2.37,4.77-1,9.25-1.46,13.61-2.15,1.52-.43,3-.85,4.48-1.3a.42.42,0,0,1-.43-.26.17.17,0,0,1,0-.1c-1.29.37-2.6.72-4,1-6.33,1.5-12.84,2.26-19.34,3.16a156.63,156.63,0,0,0-19.8,3.62c-.85.26-1.53.25-1.51,0s.75-.7,1.6-1a97.53,97.53,0,0,1,18.7-3.64c4.52-.54,8.45-1,12.83-1.54A75.83,75.83,0,0,0,197,111.1c.42-.17.84-.35,1.25-.5s.87-.29,1.28-.45a20.07,20.07,0,0,0,4.19-2.41,10.63,10.63,0,0,0,2.71-3c-1.77,2.3-5.09,4-9,5.07-.27.09-.5.06-.5,0s.25-.25.51-.34a21.55,21.55,0,0,0,6.61-3.29,8.82,8.82,0,0,0,3.19-4.74c-.53-1.2-.7-3.87-1.18-5.54-.16-.67-.27-1.32-.43-2,.19.28.29.57.45.85l-.73-2.63-.15-.19a28.4,28.4,0,0,0-5.54-4.84l.34-.16c-.44-.23-.79-.23-1.27-.47h.5a9.55,9.55,0,0,1-1.83-.86c-1.67-.42-3.64-1-5.72-1.67a3.38,3.38,0,0,1-1.18-.18,4.09,4.09,0,0,0-.6-.07c-1.44.09-3.09,0-4.87-.06.35,0,.72-.07,1.08-.08a14.24,14.24,0,0,1-1.59-.15l.22-.15a11.15,11.15,0,0,1-5.31-1,2.51,2.51,0,0,1-.37-.27H178a76,76,0,0,0-76,76h0a76.14,76.14,0,0,0,3,21.16c.87-1.82,1.8-3.61,2.82-5.36a70.09,70.09,0,0,1,5.89-8.31,66.18,66.18,0,0,1,23.14-16.94Zm22.86-25.69a1.18,1.18,0,0,1,.42-.1c.13,0,.14.06,0,.13a1,1,0,0,1-.42.1s-.06-.07,0-.13ZM182,113.56a95.51,95.51,0,0,0,14.13-3.66c.14-.05.27-.06.31,0s-.07.12-.2.17a94.85,94.85,0,0,1-14.17,3.68h-.33a.58.58,0,0,1,.3-.19Zm38.11,14.26a30.15,30.15,0,0,0,11.63-14c.29-.72.53-1.47.8-2.2s.43-1.52.66-2.27c.12-.38.18-.78.26-1.16l.24-1.1a2.44,2.44,0,0,0,.09-.66l-.44-.46v.12a2.62,2.62,0,0,1,0,.79l-.44,2.2-.61,2.29-.75,2.23a29.81,29.81,0,0,1-11.4,14.22Zm-46.83,13.11c8.22-1.23,16.44-2.43,24.46-4.29s15.87-4.42,22.37-8.82c-6.43,4.24-14.22,6.72-22.18,8.59s-16.23,3.13-24.61,4.52Zm69.05-23.3a41.76,41.76,0,0,1-4.2,8.1,44.76,44.76,0,0,1-15,13.57l-.67-1.14c-7.66,4.75-15.75,7.22-23.53,9.13s-15.49,3.13-23,4.51a190.23,190.23,0,0,0-22,5,66.73,66.73,0,0,0-19.74,9.38c1-.39.59.16.53.45a76.45,76.45,0,0,1,19.4-8.73,211.51,211.51,0,0,1,21.5-5.18c7.37-1.46,14.9-2.77,22.61-4.56,3.86-.9,7.77-1.92,11.72-3.21a75.48,75.48,0,0,0,11.92-5A89,89,0,0,1,203.37,147c-6.13,1.67-12.16,2.94-18.09,4.14-11.84,2.4-23.39,4.55-34.05,8.21a76.57,76.57,0,0,0-15,6.83,47.07,47.07,0,0,0-11.86,10.15c-5.24,6.31-8.5,14.26-10.16,23a76.46,76.46,0,0,0,15.61,17.43c-.14-.66-.28-1.32-.39-2s-.23-1.6-.35-2.39-.13-1.57-.19-2.35c-.15-1.58-.09-3-.09-4.49s.15-3,.24-4.44a39.2,39.2,0,0,1,.7-4.6l.58-2.32.3-1.15.41-1.15.84-2.29c.33-.75.7-1.49,1.06-2.23l.56-1.11c.2-.36.42-.71.64-1.07.44-.7.89-1.4,1.33-2.11a40,40,0,0,1,3.15-3.85,39,39,0,0,1,7.1-5.64,52.48,52.48,0,0,1,7.4-3.76,92.09,92.09,0,0,1,14.51-4.54c8-1.84,14.12-2.16,21-3.25.2,0,.23,0,.14.09a2.14,2.14,0,0,1-.59.19c-5.36,1.15-10.83,2.2-16.44,3.55-2.82.68-5.67,1.42-8.56,2.34a74,74,0,0,0-8.79,3.35l-2,1-2,1.09a3.4,3.4,0,0,1-.45.28c-1.14.76-2.29,1.51-3.39,2.36a13.17,13.17,0,0,1,1.2-.8c.79-.52,1.55-.85,1.69-.74s0,.19-.19.36a52.35,52.35,0,0,1,9.14-3.85,17.87,17.87,0,0,1,2.45-.78c3.36-1.42,6.77-2.61,10.16-3.74l.83-.29a9,9,0,0,1,2.81-.53.85.85,0,0,1,.38.09c7.86-1.82,15.65-3.57,22.85-5.32.36-.1.57-.09.54,0a2.54,2.54,0,0,1,.46-.17,27.75,27.75,0,0,0,2.82-.72H202a1.13,1.13,0,0,1-.51.26q-1.5.45-3,.75a.34.34,0,0,1-.2,0,3.39,3.39,0,0,1-.81.34c-7.32,2.24-14.7,3.59-22.35,5.62,3.82-.75,7.67-1.55,11.68-2.45a143.49,143.49,0,0,0,14-3.56c.25-.09.43-.1.42,0a.8.8,0,0,1-.45.24c-9.66,3.27-18.69,4.15-29,7.17l-1.21.38c3.31-.57,6.54-1,9.75-1.49,9.49-2.44,18.92-4.69,27.73-8.32.42-.2.79-.29.82-.2s-.29.33-.71.53a117.57,117.57,0,0,1-15.26,6l1.14-.21,1.12-.3c3.37-1.06,6.72-2.21,10-3.5,1.21-.54,2.3-.78,2.48-.56s-.7.83-1.87,1.36l.59-.2c.2-.07.36-.09.32,0a1.49,1.49,0,0,1-.49.28c-.71.26-1.43.44-2.15.66a157.46,157.46,0,0,1-19.4,6.21,146.56,146.56,0,0,0,21.33-6.29c-.15,0-.19,0,0-.13a2.06,2.06,0,0,1,.59-.25c.18,0,.17,0,0,.12h0a61,61,0,0,0,10.88-5.64c.2-.13.4-.2.43-.15s-.14.2-.37.33a75,75,0,0,1-18.39,8.35c-6.34,2-12.71,3.46-19,4.86l-2,.55h0a3,3,0,0,1-1.12.87l13.23-3.36c3.66-1.07,7.31-2.23,10.92-3.54.53-.19,1-.27,1-.16s-.35.34-.9.54c-.89.33-1.78.66-2.67,1,.78-.1,1.33-.08,1.45.11s-.18.51-.76.86c4-1.16,8-2.47,12-4,.22-.09.36-.1.3,0a1.22,1.22,0,0,1-.5.3,116.82,116.82,0,0,1-16.79,5.79c-4.31,1.59-8.53,3-13.19,4.43-6.78,2-13.12,3.53-19.11,5.64-2,1-4.09,1.91-6,3,.31-.06.53,0,.59.08s0,.07,0,.11a56.47,56.47,0,0,1,5.26-2.53,102.72,102.72,0,0,1,13.38-4.42c4.58-1.24,9.21-2.33,13.86-3.49,9.28-2.34,18.77-4.83,28-9.63,1.16-.66,2.1-1,2.09-.69a5,5,0,0,1-2.16,1.74A74.42,74.42,0,0,1,204,168.82c-4.39,1.45-8.79,2.59-13.33,3.68-6.46,1.53-12.06,2.73-18.23,4.38a91,91,0,0,0-10.17,3.36,46,46,0,0,0-8.84,4.64c-.49.4-1,.81-1.49,1.17s-1,.8-1.47,1.19a19.71,19.71,0,0,0-4.28,5.49,22.37,22.37,0,0,0-2.05,6.53,19.68,19.68,0,0,1,9-12.85c.32-.22.59-.31.61-.21s-.24.39-.57.62a20,20,0,0,0-6.89,8.12,26.07,26.07,0,0,0-1.91,11.21c.83,2.3,1.8,6.54,3.24,9.95.53,1.26,1,2.44,1.54,3.61-.34-.49-.66-1-.95-1.52.2.4.38.79.54,1.18s.39.72.56,1.09c.32.74.75,1.38,1.09,2.09a4.12,4.12,0,0,0,.28.31c1.31,1.25,2.77,2.56,4.36,3.83a34.48,34.48,0,0,0,5.26,3.36l-.41.14c.73.3,1.2.36,2,.7a3.48,3.48,0,0,1-.73-.12h0a29.49,29.49,0,0,1,3,1.16c2,.49,4.38,1.11,6.91,1.71,2.31.22,4.65.34,7,.34a75.88,75.88,0,0,0,64.31-116.35Zm-37.08,45a2.34,2.34,0,0,1-.59.23c-.18,0-.2,0,0-.13a1.72,1.72,0,0,1,.58-.23c.17,0,.19.08.05.17Zm-31.67,14.74c-7,2.18-13.75,4.7-18.94,8.32a.71.71,0,0,1-.4.16.8.8,0,0,1,.23-.27c5.2-3.65,12-6.18,19-8.36.23-.08.44-.1.47-.06s-.1.18-.32.25Z"/></svg>