<svg id="Layer_1" data-name="Layer 1" xmlns="http://www.w3.org/2000/svg" viewBox="0 0 474 155"><path d="M169.76,50.79A17.23,17.23,0,0,1,175.91,47a21.07,21.07,0,0,1,7.17-1.26,19.17,19.17,0,0,1,6.39.93,9.52,9.52,0,0,1,4.23,2.88,12.28,12.28,0,0,1,2.37,4.92,29.07,29.07,0,0,1,.75,7.05V76.59h-9V73.41h-.18a7.4,7.4,0,0,1-3.45,2.88,12.26,12.26,0,0,1-5,1,15.32,15.32,0,0,1-3.72-.48A10.9,10.9,0,0,1,172,75.27a8.45,8.45,0,0,1-2.61-2.88,8.89,8.89,0,0,1-1-4.44,7.54,7.54,0,0,1,1.77-5.22,11.61,11.61,0,0,1,4.56-3.06,24.16,24.16,0,0,1,6.21-1.44,63.62,63.62,0,0,1,6.66-.36v-.48A3.66,3.66,0,0,0,186,54.12a6.72,6.72,0,0,0-3.84-1,9.56,9.56,0,0,0-4.05.9,12.93,12.93,0,0,0-3.33,2.16Zm18.06,12.78h-1.26q-1.62,0-3.27.15a13.45,13.45,0,0,0-2.94.57,5.44,5.44,0,0,0-2.13,1.23,2.82,2.82,0,0,0-.84,2.13,2.58,2.58,0,0,0,.39,1.44,3,3,0,0,0,1,1,4.2,4.2,0,0,0,1.38.51,7.94,7.94,0,0,0,1.5.15,6.08,6.08,0,0,0,4.59-1.65,6.17,6.17,0,0,0,1.59-4.47Z"/><path d="M222.89,54.81a7.66,7.66,0,0,0-1.29-.24q-.63-.06-1.23-.06a7,7,0,0,0-3.33.72A6.89,6.89,0,0,0,214.88,57a6.59,6.59,0,0,0-1.17,2.22,7.39,7.39,0,0,0-.36,2.09V76.59h-9.84V46.75H213v4.32h.12a9.79,9.79,0,0,1,3.24-3.75,8.32,8.32,0,0,1,4.86-1.45,11.17,11.17,0,0,1,1.17.06,4.51,4.51,0,0,1,.93.18Z"/><path d="M239.54,54V65.47a5.18,5.18,0,0,0,.81,3.17,3.48,3.48,0,0,0,2.91,1,10.46,10.46,0,0,0,1.53-.12,5.25,5.25,0,0,0,1.35-.36l.12,7.2a16.24,16.24,0,0,1-2.58.63,18.26,18.26,0,0,1-3.12.27,14.71,14.71,0,0,1-5-.75,7.74,7.74,0,0,1-3.27-2.17A8.44,8.44,0,0,1,230.48,71a16.31,16.31,0,0,1-.54-4.36V54h-4.8V46.71h4.74V38.85h9.66v7.86h7V54Z"/><path d="M304.34,76.59V60.27a16,16,0,0,0-.18-2.43,5.8,5.8,0,0,0-.66-2,3.79,3.79,0,0,0-1.29-1.35,4,4,0,0,0-2.13-.51,4.28,4.28,0,0,0-2.19.54A4.87,4.87,0,0,0,296.33,56,6.3,6.3,0,0,0,295.4,58a9.75,9.75,0,0,0-.3,2.43V76.59h-9.84v-17a7.16,7.16,0,0,0-1-4.08A3.64,3.64,0,0,0,281,54a4.16,4.16,0,0,0-3.63,1.86,7.81,7.81,0,0,0-1.29,4.56v16.2h-9.9V46.71h9.54v4.14h.12A10.43,10.43,0,0,1,277.19,49a8.57,8.57,0,0,1,1.95-1.59,10.92,10.92,0,0,1,2.55-1.11,10.79,10.79,0,0,1,3.09-.42,10.68,10.68,0,0,1,5.49,1.32A9,9,0,0,1,293.78,51a11.38,11.38,0,0,1,3.84-3.72,11,11,0,0,1,5.7-1.38A10.75,10.75,0,0,1,308.45,47a9.54,9.54,0,0,1,3.33,2.88,12,12,0,0,1,1.83,4,17,17,0,0,1,.57,4.29V76.59Z"/><path d="M352.56,61.53a16.15,16.15,0,0,1-1.32,6.63,14.87,14.87,0,0,1-3.6,5,16.48,16.48,0,0,1-5.28,3.21,18.56,18.56,0,0,1-12.81,0,16.06,16.06,0,0,1-5.28-3.21,15.07,15.07,0,0,1-3.57-5,16.15,16.15,0,0,1-1.32-6.63,15.94,15.94,0,0,1,1.32-6.6,14.82,14.82,0,0,1,3.57-5,15.52,15.52,0,0,1,5.28-3.12,19.53,19.53,0,0,1,12.81,0A15.91,15.91,0,0,1,347.64,50a14.63,14.63,0,0,1,3.6,5A15.94,15.94,0,0,1,352.56,61.53Zm-9.48,0a8.53,8.53,0,0,0-.48-2.82,7.46,7.46,0,0,0-1.38-2.43A7,7,0,0,0,339,54.57a7.42,7.42,0,0,0-6.12,0,6.68,6.68,0,0,0-2.19,1.71,7.33,7.33,0,0,0-1.32,2.43,9.06,9.06,0,0,0,0,5.64,7.72,7.72,0,0,0,1.35,2.49,6.64,6.64,0,0,0,2.22,1.77,7.42,7.42,0,0,0,6.12,0,6.64,6.64,0,0,0,2.22-1.77,7.72,7.72,0,0,0,1.35-2.49A9,9,0,0,0,343.08,61.53Z"/><path d="M375.54,76.59H364.92L353.16,46.71H364l6.3,19.38h.18l6.3-19.38h10.5Z"/><path d="M419,62v1.2a10.33,10.33,0,0,1-.06,1.14H397.29a5.22,5.22,0,0,0,.75,2.28,6.48,6.48,0,0,0,1.62,1.77A7.95,7.95,0,0,0,404.43,70a8.28,8.28,0,0,0,4-.87A7.83,7.83,0,0,0,411,66.87l6.84,4.32a13.84,13.84,0,0,1-5.55,4.71,18.37,18.37,0,0,1-8,1.65,19.11,19.11,0,0,1-6.36-1,15.44,15.44,0,0,1-5.25-3.06,14.17,14.17,0,0,1-3.54-5,16.58,16.58,0,0,1-1.29-6.72,16.82,16.82,0,0,1,1.26-6.63,15,15,0,0,1,3.42-5,15.25,15.25,0,0,1,5.1-3.21A17.44,17.44,0,0,1,404,45.75a16.1,16.1,0,0,1,6.06,1.11,13.19,13.19,0,0,1,4.74,3.21,14.83,14.83,0,0,1,3.09,5.1A19.63,19.63,0,0,1,419,62ZM410,58.23a5.9,5.9,0,0,0-1.47-4,5.55,5.55,0,0,0-4.41-1.68,7.46,7.46,0,0,0-2.64.45,6.84,6.84,0,0,0-2.1,1.23A6.08,6.08,0,0,0,397.89,56a5.36,5.36,0,0,0-.6,2.19Z"/><path d="M443.77,54.81a7.66,7.66,0,0,0-1.29-.24q-.63-.06-1.23-.06a7,7,0,0,0-3.33.72A6.89,6.89,0,0,0,435.76,57a6.59,6.59,0,0,0-1.17,2.22,7.39,7.39,0,0,0-.36,2.09V76.59h-9.84V46.75h9.48v4.32H434a9.79,9.79,0,0,1,3.24-3.75,8.32,8.32,0,0,1,4.86-1.45,11.17,11.17,0,0,1,1.17.06,4.51,4.51,0,0,1,.93.18Z"/><path d="M465.87,55.53a11,11,0,0,0-2.82-1.92,7.79,7.79,0,0,0-3.42-.78,6,6,0,0,0-2.55.54,1.89,1.89,0,0,0-1.17,1.86A1.85,1.85,0,0,0,457.2,57a28.13,28.13,0,0,0,4.17,1.2,22.52,22.52,0,0,1,3.39,1A12,12,0,0,1,467.85,61a8.33,8.33,0,0,1,2.22,2.64,7.74,7.74,0,0,1,.84,3.72,9,9,0,0,1-4.11,7.92A12.81,12.81,0,0,1,462.69,77a19.73,19.73,0,0,1-4.56.54A22.53,22.53,0,0,1,451,76.38a15.05,15.05,0,0,1-5.85-3.45l5.52-5.82a11,11,0,0,0,3.24,2.4,9,9,0,0,0,4.08,1,5.36,5.36,0,0,0,2.37-.57,2,2,0,0,0,1.17-2,2.15,2.15,0,0,0-1.44-2,25.85,25.85,0,0,0-4.5-1.38,23.25,23.25,0,0,1-3.12-1,9.9,9.9,0,0,1-2.79-1.62,8.06,8.06,0,0,1-2-2.52,7.72,7.72,0,0,1-.78-3.6A8.73,8.73,0,0,1,448,51.18a9.66,9.66,0,0,1,2.94-3.09,13.07,13.07,0,0,1,4-1.77,17.21,17.21,0,0,1,4.35-.57,21,21,0,0,1,6.57,1A14.19,14.19,0,0,1,471.27,50Z"/><path d="M190.3,92.71a9.36,9.36,0,0,0-3.17-2.18,10.9,10.9,0,0,0-4.21-.77,10.41,10.41,0,0,0-4.41.9,9.93,9.93,0,0,0-3.33,2.42,10.72,10.72,0,0,0-2.11,3.54,12.55,12.55,0,0,0,0,8.49,10.53,10.53,0,0,0,2.11,3.52,10.19,10.19,0,0,0,3.33,2.41,10.56,10.56,0,0,0,4.41.89,15.82,15.82,0,0,0,4-.46,10.21,10.21,0,0,0,2.91-1.19v-7.74h-5.94v-2.31h8.53v11.52a16.53,16.53,0,0,1-4.5,1.87,20.09,20.09,0,0,1-5,.62,13.9,13.9,0,0,1-5.33-1,12.43,12.43,0,0,1-7-7,14.16,14.16,0,0,1-1-5.36,14,14,0,0,1,1-5.37,13.1,13.1,0,0,1,2.79-4.23,12.84,12.84,0,0,1,4.22-2.79,13.63,13.63,0,0,1,5.27-1,14.19,14.19,0,0,1,5.33.92,11.56,11.56,0,0,1,3.89,2.54Z"/><path d="M201.6,111.29h11.88v2.3H199V88.1h2.59Z"/><path d="M241.49,100.85a14,14,0,0,1-1,5.36,12.66,12.66,0,0,1-7,7,14.28,14.28,0,0,1-10.55,0,12.66,12.66,0,0,1-7-7,14.75,14.75,0,0,1,0-10.73,12.66,12.66,0,0,1,7-7,14.28,14.28,0,0,1,10.55,0,12.66,12.66,0,0,1,7,7A14,14,0,0,1,241.49,100.85Zm-2.74,0a12.51,12.51,0,0,0-.72-4.24,10.5,10.5,0,0,0-2.09-3.54,9.93,9.93,0,0,0-3.33-2.42,11.25,11.25,0,0,0-8.82,0,10.13,10.13,0,0,0-3.33,2.42,10.64,10.64,0,0,0-2.08,3.54,12.87,12.87,0,0,0,0,8.49,10.05,10.05,0,0,0,5.41,5.93,11.37,11.37,0,0,0,8.82,0,10.19,10.19,0,0,0,3.33-2.41,10.32,10.32,0,0,0,2.09-3.52A12.56,12.56,0,0,0,238.75,100.86Z"/><path d="M246.89,88.1h7.59a13.94,13.94,0,0,1,2.92.31,7.94,7.94,0,0,1,2.65,1,5.7,5.7,0,0,1,1.9,2,6.22,6.22,0,0,1,.74,3.17,5.37,5.37,0,0,1-1.23,3.51,5.81,5.81,0,0,1-3.29,2v.07a6.72,6.72,0,0,1,4.11,1.93,6,6,0,0,1,1.64,4.44,6.35,6.35,0,0,1-.67,2.9,6.22,6.22,0,0,1-1.89,2.23,8.89,8.89,0,0,1-3,1.43,14.56,14.56,0,0,1-3.95.5h-7.54Zm2.59,11.16h5.22a8.83,8.83,0,0,0,1.89-.21,5.34,5.34,0,0,0,1.75-.74,4,4,0,0,0,1.27-1.39,4.18,4.18,0,0,0,.49-2.12,4,4,0,0,0-.49-2.07,4,4,0,0,0-1.31-1.39,5.52,5.52,0,0,0-1.94-.77,11.36,11.36,0,0,0-2.38-.24h-4.5Zm0,12.1h4.82a13.05,13.05,0,0,0,2.69-.27,6.83,6.83,0,0,0,2.23-.87,4.69,4.69,0,0,0,1.53-1.54,4.4,4.4,0,0,0,.57-2.29,4.34,4.34,0,0,0-1.71-3.76,8.11,8.11,0,0,0-4.84-1.24h-5.29Z"/><path d="M269.6,113.59h-2.84l11-25.49h2.52l10.95,25.49h-2.88l-2.81-6.7H272.38Zm3.75-9.07h11.23L279,91Z"/><path d="M297.57,111.29h11.88v2.3H295V88.1h2.59Z"/><path d="M340.81,92.71a9.26,9.26,0,0,0-3.17-2.18,10.83,10.83,0,0,0-4.21-.77,10.47,10.47,0,0,0-4.41.9,9.93,9.93,0,0,0-3.33,2.42,10.86,10.86,0,0,0-2.1,3.54,12.55,12.55,0,0,0,0,8.49,10.67,10.67,0,0,0,2.1,3.52A10.19,10.19,0,0,0,329,111a10.62,10.62,0,0,0,4.41.89,15.82,15.82,0,0,0,4-.46,10.41,10.41,0,0,0,2.92-1.19v-7.74h-5.94v-2.31h8.53v11.52a16.53,16.53,0,0,1-4.5,1.87,20.2,20.2,0,0,1-5,.62,13.86,13.86,0,0,1-5.33-1,12.64,12.64,0,0,1-4.22-2.79,12.84,12.84,0,0,1-2.75-4.23,14.16,14.16,0,0,1-1-5.36,14,14,0,0,1,1-5.37,12.66,12.66,0,0,1,7-7,13.68,13.68,0,0,1,5.28-1,14.14,14.14,0,0,1,5.32.92,11.46,11.46,0,0,1,3.89,2.54Z"/><path d="M349.34,113.59H346.5l11-25.49H360l11,25.49H368.1l-2.81-6.7H352.11Zm3.75-9.07h11.23L358.7,91Z"/><path d="M377.31,111.29h11.88v2.3H374.72V88.1h2.59Z"/><path d="M395.67,111.29h11.88v2.3H393.08V88.1h2.59Z"/><path d="M414,111.29h13.65v2.3H411.44V88.1h15.81v2.31H414v8.74h12.35v2.31H414Z"/><path d="M435.35,113.59h-2.6V88.1h7.49a15.89,15.89,0,0,1,3.48.36,7.88,7.88,0,0,1,2.77,1.17,5.56,5.56,0,0,1,1.82,2.11,7.05,7.05,0,0,1,.64,3.17,6.21,6.21,0,0,1-1.87,4.55,6.65,6.65,0,0,1-2.05,1.35,9,9,0,0,1-2.59.65l7.45,12.13h-3.17l-7.05-11.92h-4.32Zm0-14.15h4.5a8.7,8.7,0,0,0,4.82-1.13,3.82,3.82,0,0,0,1.69-3.4,4.36,4.36,0,0,0-.47-2.13,3.85,3.85,0,0,0-1.29-1.4,5.77,5.77,0,0,0-2-.79,12.54,12.54,0,0,0-2.63-.26h-4.6Z"/><path d="M462.85,113.59h-2.59v-11L450.72,88.1H454l7.67,12.35,7.74-12.35h3l-9.54,14.51Z"/><path d="M35.81,67.52a115.1,115.1,0,0,1,25.82-7.89c11.8-2.25,23.89-4,35.22-6.79s21.79-6.87,28-14.17a22.55,22.55,0,0,0,3.07-5.15A32.26,32.26,0,0,0,129.83,27c.08-.46.15-.92.23-1.37a2.61,2.61,0,0,0,0-.28c0-.25,0-.5,0-.75,0-.74-.08-1.43-.14-2.1a76.25,76.25,0,0,0-7.48-6.4c0,.53,0,1.06,0,1.59a28.63,28.63,0,0,1-.43,3.73c-.12.63-.21,1.24-.38,1.88s-.37,1.26-.56,1.89a13.57,13.57,0,0,1-.7,1.86c-.27.62-.51,1.24-.83,1.82a24,24,0,0,1-2.15,3.39,26.12,26.12,0,0,1-2.57,3c-.46.43-.93.83-1.41,1.25l-.71.6-.72.54A37.39,37.39,0,0,1,106,41.09a51.55,51.55,0,0,1-11,3c-3.48.61-6.82.95-10.12,1.22-5.55.43-9.76-.06-14.56,0-.14,0-.17-.06-.1-.11a.92.92,0,0,1,.41-.1c3.75-.31,7.54-.59,11.44-1a96.66,96.66,0,0,0,12.15-1.94c1-.23,1.92-.48,2.87-.77a2.52,2.52,0,0,1,.33-.13c.85-.29,1.71-.65,2.56-1l-.91.29c-.59.21-1.15.26-1.24.09s0-.15.16-.25a61.27,61.27,0,0,1-6.57,1,9.58,9.58,0,0,1-1.73.2c-2.38.65-4.75,1.18-7.12,1.73l-.58.15a4.15,4.15,0,0,1-2,.07.61.61,0,0,1-.26-.14c-5.46.58-10.88,1.24-16,1.68-.26,0-.4,0-.38-.11a1.07,1.07,0,0,1-.33.08,16.41,16.41,0,0,0-2,.16c-.16,0-.25,0-.19-.07a.6.6,0,0,1,.36-.14c.73-.09,1.45-.16,2.12-.18a.21.21,0,0,1,.14,0,1.42,1.42,0,0,1,.58-.18c5.18-.89,10.29-1.25,15.62-2.07-2.65.15-5.33.4-8.13.67-3.39.34-6.52.54-9.86,1.16-.18,0-.3,0-.3,0a.49.49,0,0,1,.32-.15C68.63,43,74.88,43.2,82.09,41.91l.85-.16-6.79-.07C69.53,42.67,63,43.6,56.58,45c-.3.08-.57.07-.59,0s.22-.24.53-.32c3.54-1.13,7.18-2.08,10.85-2.92l-.8,0-.78.11c-2.37.48-4.74,1-7.11,1.53-.88.22-1.66.24-1.78,0s.51-.65,1.36-.88l-.42,0c-.15,0-.26,0-.23,0a.71.71,0,0,1,.35-.16l1.53-.18c4.5-1.22,9.08-2.06,13.65-2.82a124,124,0,0,0-15,2.51c.11,0,.14.06,0,.12a.9.9,0,0,1-.42.1c-.13,0-.12-.06,0-.12h0a79.6,79.6,0,0,0-8,2.42c-.15.06-.3.06-.31,0s.11-.14.28-.19c8.76-3.2,17.85-4.47,26.61-5.36l1.43-.24h0a1.87,1.87,0,0,1,.8-.68l-9.27,1.32c-2.56.51-5.12,1-7.68,1.64-.36.09-.69.08-.73,0s.25-.26.64-.36L63.38,40c-.55,0-.93-.14-1-.36s.13-.46.54-.7c-2.84.42-5.67.87-8.47,1.35-.16,0-.26,0-.22-.05a.71.71,0,0,1,.37-.16c4-1,7.94-1.69,11.86-2.31,3-.88,6-1.7,9.26-2.37,4.77-1,9.25-1.46,13.61-2.15,1.52-.43,3-.85,4.48-1.3-.24,0-.39-.13-.43-.26a.18.18,0,0,1,0-.1c-1.29.37-2.6.72-4,1-6.33,1.5-12.84,2.26-19.34,3.16a158.13,158.13,0,0,0-19.8,3.62c-.85.26-1.53.25-1.51,0s.75-.7,1.6-.95a98.19,98.19,0,0,1,18.7-3.64c4.52-.54,8.45-1,12.83-1.54A75.51,75.51,0,0,0,96,30.1c.42-.17.84-.35,1.25-.5s.87-.29,1.28-.45a20.46,20.46,0,0,0,4.19-2.41,10.63,10.63,0,0,0,2.71-2.95c-1.77,2.3-5.09,4-9,5.07-.27.09-.5.06-.5,0s.25-.25.51-.34a21.48,21.48,0,0,0,6.61-3.29,8.81,8.81,0,0,0,3.19-4.74c-.53-1.2-.7-3.87-1.18-5.54-.16-.67-.27-1.32-.43-2,.19.28.29.57.45.85l-.73-2.63-.15-.19a28.59,28.59,0,0,0-5.54-4.84l.34-.16c-.44-.23-.79-.23-1.27-.47l.5,0,0,0a9.31,9.31,0,0,1-1.83-.86c-1.67-.42-3.64-1-5.72-1.67a3.52,3.52,0,0,1-1.18-.18,3.69,3.69,0,0,0-.6-.07c-1.44.09-3.09,0-4.87-.06.35,0,.72-.07,1.08-.08a14.94,14.94,0,0,1-1.59-.15l.22-.15a11.17,11.17,0,0,1-5.31-1A2.37,2.37,0,0,1,78.1,1c-.37,0-.73,0-1.1,0A76,76,0,0,0,4,98.16c.87-1.82,1.8-3.61,2.82-5.36a70,70,0,0,1,5.89-8.31A66.11,66.11,0,0,1,35.81,67.52ZM58.67,41.83a1.12,1.12,0,0,1,.42-.1c.13,0,.14.06,0,.13a1,1,0,0,1-.42.1C58.59,42,58.57,41.89,58.67,41.83Zm22.38-9.27A95.45,95.45,0,0,0,95.18,28.9c.14,0,.27-.06.31,0s-.07.12-.2.17a93.86,93.86,0,0,1-14.17,3.68c-.17,0-.32,0-.33,0S80.89,32.59,81.05,32.56Zm38.11,14.26a30.16,30.16,0,0,0,11.63-14c.29-.72.53-1.47.8-2.2s.43-1.52.66-2.27c.12-.38.18-.78.26-1.16l.24-1.1a2.23,2.23,0,0,0,.09-.66L132.4,25v.12a2.87,2.87,0,0,1,0,.79l-.44,2.2-.61,2.29-.75,2.23A29.82,29.82,0,0,1,119.16,46.82ZM72.33,59.93c8.22-1.23,16.44-2.43,24.46-4.29s15.87-4.42,22.37-8.82c-6.43,4.24-14.22,6.72-22.18,8.59S80.71,58.54,72.33,59.93ZM123,54.52a52,52,0,0,1-7.4,3.94,70.4,70.4,0,0,1-7.81,2.9c-7.47,2.21-15.4,3.89-23.24,5.51S69,70,61.92,71.78c8.43-1.9,17.17-3.39,26-5.17s17.91-3.81,26.76-7.54a53.18,53.18,0,0,0,12.7-7.44,38.63,38.63,0,0,0,5.46-5.32c.86-1,1.58-2,2.35-3.05s1.43-2.14,2-3.28a38.78,38.78,0,0,0,2.6-5.74c-.13-.2-.28-.39-.42-.59l-.54,1.56a40.78,40.78,0,0,1-3.76,7.5,40.5,40.5,0,0,1-5.4,6.58A44.65,44.65,0,0,1,123,54.52Zm18.34-17.89a41.52,41.52,0,0,1-4.2,8.1,44.65,44.65,0,0,1-15,13.57l-.67-1.14c-7.66,4.75-15.75,7.22-23.53,9.13S82.48,69.42,75,70.8a191.08,191.08,0,0,0-22,5,66.64,66.64,0,0,0-19.74,9.38c1-.39.59.16.53.45a76.58,76.58,0,0,1,19.4-8.73,209.44,209.44,0,0,1,21.5-5.18C82,70.29,89.54,69,97.25,67.19c3.86-.9,7.77-1.92,11.72-3.21a75.73,75.73,0,0,0,11.92-5,89.33,89.33,0,0,1-18.51,7.07C96.25,67.76,90.22,69,84.29,70.23c-11.84,2.4-23.39,4.55-34.05,8.21a76.8,76.8,0,0,0-15,6.83A46.9,46.9,0,0,0,23.43,95.42c-5.24,6.31-8.5,14.26-10.16,23a76.51,76.51,0,0,0,15.61,17.43c-.15-.66-.28-1.32-.39-2s-.23-1.6-.35-2.39-.13-1.57-.19-2.35c-.15-1.58-.09-3-.09-4.49s.15-3,.24-4.44.41-3.07.7-4.6l.58-2.32.3-1.15.41-1.15.84-2.29c.33-.75.7-1.49,1.06-2.23l.56-1.11c.2-.36.42-.71.64-1.07.44-.7.89-1.4,1.33-2.11a39.12,39.12,0,0,1,3.15-3.85,38.8,38.8,0,0,1,7.1-5.64,52.63,52.63,0,0,1,7.4-3.76,91.87,91.87,0,0,1,14.51-4.54c8-1.84,14.12-2.16,21-3.25.2,0,.23,0,.14.09a2.15,2.15,0,0,1-.59.19c-5.36,1.15-10.83,2.2-16.44,3.55-2.82.68-5.67,1.42-8.56,2.34a72.9,72.9,0,0,0-8.79,3.35l-2,1-2,1.09a4.42,4.42,0,0,1-.45.28c-1.14.76-2.29,1.51-3.39,2.36a13.17,13.17,0,0,1,1.2-.8c.79-.52,1.55-.85,1.69-.74s0,.19-.19.36a52.42,52.42,0,0,1,9.14-3.85,17.45,17.45,0,0,1,2.45-.78c3.36-1.42,6.77-2.61,10.16-3.74l.83-.29a9,9,0,0,1,2.81-.53.74.74,0,0,1,.38.09C82,83.2,89.75,81.45,97,79.7c.36-.1.57-.09.54,0a2.46,2.46,0,0,1,.46-.17,24.93,24.93,0,0,0,2.82-.72c.22,0,.35,0,.27,0a1.21,1.21,0,0,1-.51.26c-1,.3-2,.55-3,.75a.32.32,0,0,1-.2,0,3.13,3.13,0,0,1-.81.34c-7.32,2.24-14.7,3.59-22.35,5.62,3.82-.75,7.67-1.55,11.68-2.45a142.43,142.43,0,0,0,14-3.56c.25-.09.43-.1.42-.05a.81.81,0,0,1-.45.24c-9.66,3.27-18.69,4.15-29,7.17l-1.21.38c3.31-.57,6.54-1,9.75-1.49,9.49-2.44,18.92-4.69,27.73-8.32.42-.2.79-.29.82-.2s-.29.33-.71.53a117.41,117.41,0,0,1-15.26,6l1.14-.21,1.12-.3c3.37-1.06,6.72-2.21,10-3.5,1.21-.54,2.3-.78,2.48-.56s-.7.83-1.87,1.36l.59-.2c.2-.07.36-.09.32,0a1.5,1.5,0,0,1-.49.28c-.71.26-1.43.44-2.15.66a157.39,157.39,0,0,1-19.4,6.21,146.64,146.64,0,0,0,21.33-6.29c-.15,0-.19,0,0-.13a2.18,2.18,0,0,1,.59-.25c.18,0,.17,0,0,.12h0a61.4,61.4,0,0,0,10.88-5.64c.2-.13.4-.2.43-.15s-.14.2-.37.33a75.22,75.22,0,0,1-18.39,8.35c-6.34,2-12.71,3.46-19,4.86l-2,.55h0a3,3,0,0,1-1.12.87l13.23-3.36c3.66-1.07,7.31-2.23,10.92-3.54.53-.19,1-.27,1-.16s-.35.34-.9.54c-.89.33-1.78.66-2.67,1,.78-.1,1.33-.08,1.45.11s-.18.51-.76.86c4-1.16,8-2.47,12-4,.22-.09.36-.1.3,0a1.31,1.31,0,0,1-.5.3,116.34,116.34,0,0,1-16.79,5.79c-4.31,1.59-8.53,3-13.19,4.43C73.35,94.33,67,95.84,61,98c-2.05,1-4.09,1.91-6,3,.31-.06.53,0,.59.08s0,.07,0,.11a57,57,0,0,1,5.26-2.53A103.77,103.77,0,0,1,74.31,94.2c4.58-1.24,9.21-2.33,13.86-3.49,9.28-2.34,18.77-4.83,28-9.63,1.16-.66,2.1-1,2.09-.69a5,5,0,0,1-2.16,1.74A74.28,74.28,0,0,1,103,87.82c-4.39,1.45-8.79,2.59-13.33,3.68C83.17,93,77.57,94.23,71.4,95.88a90.45,90.45,0,0,0-10.17,3.36,46,46,0,0,0-8.84,4.64c-.49.4-1,.81-1.49,1.17s-1,.8-1.47,1.19a19.87,19.87,0,0,0-4.28,5.49,22.4,22.4,0,0,0-2,6.53,19.68,19.68,0,0,1,8.95-12.85c.32-.22.59-.31.61-.21s-.24.39-.57.62a19.88,19.88,0,0,0-6.89,8.12,26.05,26.05,0,0,0-1.91,11.21c.83,2.3,1.8,6.54,3.24,9.95.53,1.26,1,2.44,1.54,3.61a16,16,0,0,1-1-1.52c.2.4.38.79.54,1.18s.39.72.56,1.09c.32.74.75,1.38,1.09,2.09a3.92,3.92,0,0,0,.28.31c1.31,1.25,2.77,2.56,4.36,3.83a34.06,34.06,0,0,0,5.26,3.36l-.41.14c.73.3,1.2.36,2,.7-.26,0-.49-.07-.73-.12l0,0a29.37,29.37,0,0,1,3,1.16c2,.49,4.38,1.11,6.91,1.71,2.31.22,4.65.34,7,.34A76,76,0,0,0,141.38,36.63Zm-37.08,45a2.18,2.18,0,0,1-.59.23c-.18,0-.2,0,0-.13a1.76,1.76,0,0,1,.58-.23C104.42,81.52,104.44,81.58,104.3,81.67ZM72.63,96.41c-7,2.18-13.75,4.7-18.94,8.32a.71.71,0,0,1-.4.16s.07-.15.23-.27c5.2-3.65,12-6.18,19-8.36.23-.08.44-.1.47-.06S72.85,96.34,72.63,96.41Z"/></svg>