<?xml version="1.0" standalone="no"?>
<!DOCTYPE svg PUBLIC "-//W3C//DTD SVG 20010904//EN"
 "http://www.w3.org/TR/2001/REC-SVG-20010904/DTD/svg10.dtd">
<svg version="1.0" xmlns="http://www.w3.org/2000/svg"
 width="260.000000pt" height="260.000000pt" viewBox="0 0 260.000000 260.000000"
 preserveAspectRatio="xMidYMid meet">
<metadata>
Created by potrace 1.14, written by Peter Selinger 2001-2017
</metadata>
<g transform="translate(0.000000,260.000000) scale(0.100000,-0.100000)"
fill="#000000" stroke="none">
<path d="M0 1300 l0 -1300 617 0 c339 0 614 2 612 4 -2 2 -107 108 -232 235
-125 127 -229 231 -231 231 -1 0 -3 -26 -3 -57 -1 -32 -1 -64 -2 -71 -1 -10
-48 -12 -211 -12 l-210 1 0 965 c0 911 1 964 18 965 9 0 75 1 145 1 l129 1
603 -607 c419 -423 604 -602 607 -590 1 9 1 117 -2 240 l-5 223 -290 297
c-159 163 -336 345 -393 403 -57 58 -162 166 -234 239 l-131 132 -393 0 -394
0 0 -1300z"/>
<path d="M1481 2485 c63 -64 169 -172 235 -240 67 -69 123 -125 125 -125 2 0
3 32 1 70 l-4 70 213 -2 213 -3 0 -953 c1 -525 -1 -958 -4 -962 -3 -4 -67 -7
-143 -7 l-139 2 -607 609 -608 609 1 -241 c1 -133 5 -245 10 -249 46 -45 722
-737 726 -743 3 -5 74 -79 159 -165 l153 -155 394 0 394 0 0 1300 0 1300 -616
0 -616 0 113 -115z"/>
</g>
</svg>
